<?xml version="1.0" standalone="no"?>
<!DOCTYPE svg PUBLIC "-//W3C//DTD SVG 20010904//EN"
 "http://www.w3.org/TR/2001/REC-SVG-20010904/DTD/svg10.dtd">
<svg version="1.0" xmlns="http://www.w3.org/2000/svg"
 width="1126.000000pt" height="1126.000000pt" viewBox="0 0 1126.000000 1126.000000"
 preserveAspectRatio="xMidYMid meet">
<metadata>
Created by potrace 1.14, written by Peter Selinger 2001-2017
</metadata>
<g transform="translate(0.000000,1126.000000) scale(0.100000,-0.100000)"
fill="#000000" stroke="none">
<path d="M0 5630 l0 -5630 5630 0 5630 0 0 5630 0 5630 -5630 0 -5630 0 0
-5630z m6015 3614 c55 -7 114 -13 130 -12 46 0 313 -39 375 -56 176 -47 323
-92 351 -107 13 -7 24 -11 24 -9 0 5 79 -22 90 -30 6 -5 53 -23 105 -40 52
-18 107 -41 122 -52 16 -11 70 -41 120 -67 134 -70 189 -100 219 -122 15 -10
31 -19 36 -19 5 0 24 -13 43 -30 19 -16 40 -29 45 -30 9 0 65 -47 65 -54 0 -2
-20 -39 -43 -82 -24 -44 -58 -110 -76 -149 -18 -38 -41 -86 -52 -106 -10 -20
-19 -42 -19 -48 0 -6 -11 -34 -23 -63 -33 -74 -53 -133 -72 -208 -9 -36 -22
-83 -30 -105 -8 -22 -21 -66 -30 -98 -14 -52 -18 -57 -38 -52 -21 7 -21 6 -3
-7 21 -16 21 -6 -9 -233 -36 -263 -45 -546 -25 -767 5 -57 10 -132 12 -168 3
-64 3 -65 -22 -63 -14 1 -65 5 -115 8 l-90 7 -82 -40 c-66 -33 -91 -40 -137
-40 l-55 1 -17 43 c-20 53 -45 64 -164 71 -85 5 -86 5 -169 -37 -80 -40 -87
-41 -140 -33 -54 8 -56 9 -64 47 -12 49 -51 66 -163 74 -77 4 -84 3 -158 -32
-65 -30 -87 -36 -134 -33 l-57 2 -22 47 c-15 31 -30 49 -45 53 -155 35 -176
34 -281 -15 -76 -35 -92 -39 -136 -33 -49 6 -52 8 -70 48 -10 23 -25 46 -32
50 -7 5 -59 11 -117 13 -102 5 -104 4 -181 -32 -71 -33 -83 -36 -134 -30 -53
6 -57 9 -68 41 -14 44 -40 59 -118 71 -90 13 -126 8 -214 -33 -63 -28 -87 -34
-127 -31 -59 4 -67 9 -75 45 -9 44 -32 57 -127 71 -94 14 -102 13 -229 -42
-44 -19 -67 -23 -109 -18 -50 5 -53 7 -73 50 -20 40 -27 46 -72 58 -27 7 -75
15 -105 18 -50 5 -63 2 -143 -36 -81 -39 -91 -41 -139 -33 -47 7 -53 11 -60
39 -11 43 -36 62 -98 74 -102 19 -149 13 -238 -30 -76 -36 -87 -39 -134 -32
-49 7 -52 9 -60 42 -9 37 -49 80 -74 80 -8 0 -14 9 -14 20 0 25 30 103 44 112
6 4 7 8 3 8 -5 0 -5 6 0 13 4 6 8 17 9 23 1 6 14 37 29 70 14 32 32 70 38 84
6 14 17 32 23 40 7 8 38 64 69 125 30 60 59 112 64 115 4 3 16 21 26 40 10 19
33 56 52 83 19 26 36 53 37 60 1 6 16 27 34 46 18 18 32 38 32 43 0 6 15 28
33 48 55 65 74 88 81 102 18 34 34 56 71 93 22 22 59 63 81 90 23 28 61 64 85
81 39 26 49 29 84 23 22 -4 65 -11 95 -14 30 -4 75 -11 100 -15 324 -57 550
-91 572 -88 13 2 -29 12 -92 21 -63 10 -146 24 -185 32 -98 21 -315 61 -406
75 -42 7 -83 16 -90 21 -11 7 4 26 61 80 41 39 92 81 113 95 20 13 37 28 37
32 0 8 154 122 165 122 3 0 33 22 68 48 34 27 109 75 167 108 57 32 114 65
125 71 28 18 176 88 245 116 19 8 72 31 116 51 45 20 88 36 96 36 8 0 18 4 23
9 10 9 92 32 205 58 36 8 72 17 80 20 66 27 175 53 238 59 30 2 60 8 66 12 6
4 45 10 86 14 194 17 282 26 288 32 11 11 373 4 477 -10z m-3550 -4464 c8 -13
-13 -40 -31 -40 -17 0 -18 22 -2 38 15 15 25 15 33 2z m275 -26 c6 -6 -10 -29
-44 -63 l-54 -54 -86 8 c-50 4 -86 11 -86 17 0 6 24 34 53 63 l52 52 78 -7
c43 -4 82 -11 87 -16z m430 -34 c201 -18 304 -30 312 -38 4 -4 -28 -29 -71
-55 -61 -36 -89 -47 -122 -47 -79 0 -344 31 -357 42 -8 7 -12 28 -11 52 4 69
5 69 78 62 36 -4 113 -11 171 -16z m-340 -49 c0 -34 -12 -51 -35 -51 -35 0
-40 18 -14 46 27 29 49 31 49 5z m923 -6 c78 -8 293 -28 477 -45 184 -16 351
-32 370 -35 19 -2 60 -7 90 -10 30 -3 152 -14 270 -25 118 -11 267 -25 330
-31 63 -5 178 -16 255 -24 77 -8 196 -19 265 -25 69 -6 188 -17 265 -25 77 -8
331 -33 565 -56 234 -22 515 -49 625 -59 110 -11 274 -27 365 -35 91 -8 181
-17 200 -20 19 -3 85 -10 145 -15 61 -6 130 -13 155 -15 25 -3 117 -12 205
-20 88 -8 174 -17 190 -19 17 -3 54 -7 83 -11 54 -5 79 -15 110 -40 9 -8 28
-22 41 -33 23 -18 23 -19 6 -52 -16 -32 -25 -44 -52 -75 -7 -7 -13 -19 -13
-25 0 -15 -54 -94 -91 -131 -16 -16 -29 -32 -29 -35 0 -19 -102 -154 -169
-225 l-78 -82 -109 6 c-60 4 -127 9 -149 11 -22 3 -78 8 -125 11 -47 4 -97 9
-111 11 -14 2 -131 13 -260 24 -129 11 -364 34 -524 50 -159 16 -404 39 -544
52 -246 22 -254 23 -262 46 -5 13 -9 34 -9 48 0 58 -60 134 -130 165 -52 23
-110 75 -110 99 0 9 11 23 25 30 29 15 31 34 12 106 -26 100 -103 164 -197
163 -79 0 -129 -39 -170 -131 -11 -24 -31 -50 -45 -58 -34 -18 -28 -42 13 -54
32 -9 52 -42 38 -65 -4 -5 -2 -12 3 -16 5 -3 21 -30 35 -61 l25 -55 53 3 c47
3 53 1 55 -17 5 -37 -33 -68 -88 -73 -41 -4 -53 -9 -62 -29 -10 -23 -13 -24
-91 -18 -45 3 -99 8 -121 10 -77 9 -251 25 -795 75 -179 17 -383 37 -455 46
-71 8 -224 24 -340 34 -115 11 -282 27 -370 35 -88 9 -203 20 -255 25 -53 5
-128 14 -167 21 -62 10 -72 15 -77 35 -4 13 -16 28 -27 35 -18 9 -26 6 -56
-23 l-34 -33 3 115 3 115 50 23 c27 13 63 36 80 51 17 14 124 82 238 151 230
138 277 172 277 201 0 23 6 24 193 4z m-947 -551 c-3 -26 -6 -66 -6 -90 0 -57
-21 -58 -51 -4 -13 22 -26 40 -31 40 -22 0 -4 42 29 69 54 45 67 41 59 -15z
m133 -173 c11 -7 13 -27 8 -91 -3 -45 -8 -85 -12 -88 -14 -14 -29 35 -30 103
-3 87 1 97 34 76z m401 -46 c135 -14 304 -32 377 -39 73 -6 135 -15 139 -18 3
-4 3 -68 -1 -144 l-7 -136 -82 7 c-156 12 -392 36 -516 51 -69 9 -147 18 -175
21 -27 2 -54 8 -58 12 -10 10 -9 250 2 280 0 2 18 1 39 -2 20 -3 147 -17 282
-32z m930 -90 c168 -14 341 -28 385 -31 44 -3 95 -7 114 -10 l34 -5 -7 -142
c-8 -177 -7 -165 -23 -171 -7 -3 -111 6 -231 20 -119 13 -255 28 -301 33 -51
5 -87 14 -92 22 -7 11 -9 11 -9 1 0 -10 -13 -11 -52 -6 -29 4 -54 10 -55 13
-2 3 -26 6 -54 5 -74 -1 -82 11 -75 110 3 45 5 104 6 133 0 51 12 66 45 56 6
-1 147 -14 315 -28z m995 -84 c44 -6 153 -16 242 -22 90 -7 168 -16 174 -19
11 -7 14 -314 3 -332 -3 -5 -18 -7 -32 -4 -15 3 -56 8 -92 11 -70 7 -132 13
-425 45 -230 25 -279 31 -284 36 -5 5 -5 62 -1 216 2 81 5 97 19 100 19 4 279
-17 396 -31z m1234 -117 c85 -8 158 -17 163 -20 10 -6 0 -326 -10 -335 -4 -4
-38 -3 -77 2 -38 4 -121 13 -184 18 -120 11 -143 20 -122 45 13 16 10 207 -4
274 l-7 32 43 0 c24 0 113 -7 198 -16z m423 -39 c90 -8 177 -17 193 -20 17 -3
109 -12 205 -20 221 -19 262 -25 277 -37 9 -7 11 -48 7 -161 -7 -168 -12 -183
-69 -173 -16 3 -82 10 -145 16 -125 11 -163 15 -315 30 -55 6 -152 15 -215 21
-63 5 -121 12 -129 15 -11 4 -13 34 -8 172 4 92 7 168 7 170 0 4 27 2 192 -13z
m-3592 -50 c80 -8 165 -17 190 -19 25 -3 92 -10 150 -16 58 -6 120 -13 139
-16 l34 -5 -8 -142 c-4 -78 -9 -173 -12 -212 -2 -38 -4 -79 -4 -90 2 -40 -10
-85 -23 -85 -7 0 -23 11 -36 25 -13 14 -31 25 -41 25 -9 0 -24 12 -34 26 l-17
26 41 -5 c23 -2 44 -1 47 4 3 5 2 9 -3 9 -85 5 -107 10 -128 30 -13 12 -27 20
-32 17 -16 -10 -75 51 -75 77 0 20 -7 28 -27 32 -74 15 -121 57 -121 106 0 37
-1 38 -34 38 -50 0 -63 8 -88 51 -12 21 -27 39 -34 39 -15 0 -36 34 -27 44 3
3 -8 11 -25 17 -40 14 -43 39 -4 39 15 0 92 -7 172 -15z m4610 -51 c80 -8 178
-17 218 -21 48 -4 76 -11 79 -20 7 -18 -19 -55 -74 -106 -25 -23 -59 -54 -75
-69 -26 -26 -40 -32 -60 -29 -4 0 -5 -5 -3 -12 6 -16 -2 -26 -48 -60 -34 -26
-43 -28 -95 -23 -31 3 -88 8 -127 12 -38 3 -74 8 -78 11 -8 5 -7 259 1 316 l5
29 56 -6 c31 -4 121 -14 201 -22z m-3900 -24 c47 -5 101 -12 120 -14 19 -3 85
-10 145 -16 61 -6 128 -13 150 -15 22 -3 100 -11 173 -20 73 -8 137 -17 143
-20 10 -7 12 -106 3 -155 l-7 -32 -71 6 c-39 3 -105 8 -146 11 -41 3 -88 8
-105 10 -49 8 -111 14 -290 30 -256 23 -255 22 -256 54 -1 14 -1 29 0 33 0 4
1 37 2 73 2 75 -8 72 139 55z m970 -105 c180 -20 420 -47 445 -50 11 -1 64 -6
118 -10 115 -9 118 -12 110 -116 -6 -78 -27 -124 -70 -150 -49 -31 -121 -116
-134 -160 -11 -34 -10 -41 7 -60 15 -17 27 -20 63 -16 37 4 50 12 79 46 62 75
67 14 8 -91 -43 -74 -64 -101 -89 -111 -10 -4 -15 -11 -12 -17 4 -6 -1 -33
-11 -62 l-17 -51 -106 6 c-58 3 -124 8 -146 11 -22 2 -76 7 -120 11 -44 3 -89
9 -99 12 -10 3 -46 6 -80 7 -34 2 -78 3 -100 4 l-38 2 7 308 c8 365 13 461 24
500 2 4 21 2 161 -13z m-1670 -25 c0 -5 -4 -10 -9 -10 -6 0 -13 5 -16 10 -3 6
1 10 9 10 9 0 16 -4 16 -10z m3155 -130 c72 -7 137 -15 145 -20 12 -6 15 -32
12 -151 -2 -170 -21 -507 -28 -531 -4 -12 -15 -18 -34 -18 -23 0 -28 -4 -23
-16 5 -13 -1 -15 -29 -13 -23 2 -41 -3 -52 -14 -20 -19 -106 -24 -106 -6 0 8
-4 8 -12 2 -7 -6 -38 -9 -68 -7 -95 5 -172 13 -178 19 -3 2 -6 21 -7 42 -2 26
-8 39 -22 44 -18 6 -21 19 -25 111 -6 114 5 161 41 173 12 4 21 15 21 26 0 32
19 59 40 59 35 0 53 45 62 153 9 102 15 159 17 166 0 2 27 1 59 -2 31 -3 116
-10 187 -17z m580 -59 c105 -12 237 -25 295 -31 212 -21 225 -24 225 -55 0
-15 -6 -25 -14 -25 -11 0 -11 -4 2 -18 21 -23 12 -56 -19 -72 -20 -11 -69 -9
-301 14 -323 31 -451 44 -510 52 l-42 5 1 72 c1 40 4 76 6 81 6 10 97 4 357
-23z m753 -85 c12 -13 -39 -46 -70 -46 -26 0 -29 -2 -18 -15 11 -13 8 -16 -19
-21 -17 -4 -31 -13 -31 -20 0 -8 -4 -14 -9 -14 -13 0 -20 25 -14 49 4 17 9 19
24 10 12 -6 19 -6 19 0 0 5 -9 12 -19 16 -23 7 -38 44 -22 54 13 8 149 -3 159
-13z m-3548 -280 c76 -9 342 -35 403 -40 32 -2 61 -7 65 -11 11 -10 2 -139
-10 -146 -6 -4 -21 -5 -32 -3 -12 3 -80 11 -151 18 -137 14 -175 25 -175 54 0
13 -2 14 -9 3 -11 -18 -46 -6 -92 30 -20 16 -39 25 -43 22 -10 -10 -76 28 -76
43 0 7 -16 16 -35 20 -19 3 -35 11 -35 16 0 10 79 7 190 -6z m2514 -245 c24
-5 27 -8 15 -18 -9 -7 -35 -14 -60 -15 -39 -3 -44 -1 -47 20 -3 19 1 22 30 21
18 -1 46 -4 62 -8z m-1810 -80 c31 -12 1 -24 -37 -15 -17 4 -36 7 -40 6 -5 -2
-6 2 -2 8 7 11 51 12 79 1z m206 -16 c14 -2 63 -7 110 -11 47 -4 96 -8 110 -9
14 -1 42 -3 63 -4 27 -1 37 -5 37 -17 0 -15 -11 -16 -97 -10 -54 4 -134 11
-178 17 -44 5 -108 11 -143 14 -68 4 -86 11 -76 27 6 9 91 5 174 -7z m620 -70
c0 -15 -18 -30 -27 -22 -2 3 -2 15 2 26 7 23 25 19 25 -4z"/>
<path d="M4161 8135 c3 -2 21 -7 40 -10 19 -3 58 -9 87 -14 28 -4 52 -5 52 -1
0 4 -34 13 -75 19 -82 12 -111 14 -104 6z"/>
<path d="M4360 8110 c-6 -4 12 -10 41 -13 29 -4 54 -5 56 -3 7 7 -87 22 -97
16z"/>
<path d="M4498 8083 c6 -2 18 -2 25 0 6 3 1 5 -13 5 -14 0 -19 -2 -12 -5z"/>
<path d="M4540 8080 c0 -5 14 -10 32 -10 36 0 35 4 -4 14 -17 4 -28 2 -28 -4z"/>
<path d="M4615 8070 c3 -5 18 -10 33 -9 24 0 25 1 7 9 -28 12 -47 12 -40 0z"/>
<path d="M4720 8051 c8 -5 42 -12 75 -15 37 -4 50 -3 35 2 -38 13 -128 23
-110 13z"/>
<path d="M4860 8028 c0 -6 2 -9 6 -6 3 3 21 2 41 -2 19 -5 32 -5 27 -1 -16 15
-74 21 -74 9z"/>
<path d="M4995 8010 c3 -5 8 -10 11 -10 2 0 4 5 4 10 0 6 -5 10 -11 10 -5 0
-7 -4 -4 -10z"/>
<path d="M5208 7973 c7 -3 16 -2 19 1 4 3 -2 6 -13 5 -11 0 -14 -3 -6 -6z"/>
<path d="M5283 7963 c9 -2 25 -2 35 0 9 3 1 5 -18 5 -19 0 -27 -2 -17 -5z"/>
<path d="M5388 7953 c7 -3 16 -2 19 1 4 3 -2 6 -13 5 -11 0 -14 -3 -6 -6z"/>
<path d="M5458 7943 c7 -3 16 -2 19 1 4 3 -2 6 -13 5 -11 0 -14 -3 -6 -6z"/>
<path d="M5573 7923 c9 -2 25 -2 35 0 9 3 1 5 -18 5 -19 0 -27 -2 -17 -5z"/>
<path d="M5668 7913 c7 -3 16 -2 19 1 4 3 -2 6 -13 5 -11 0 -14 -3 -6 -6z"/>
<path d="M6025 7860 c3 -5 30 -10 58 -9 41 1 47 3 27 9 -37 12 -92 12 -85 0z"/>
<path d="M6248 7833 c7 -3 16 -2 19 1 4 3 -2 6 -13 5 -11 0 -14 -3 -6 -6z"/>
<path d="M6325 7820 c11 -5 27 -9 35 -9 9 0 8 4 -5 9 -11 5 -27 9 -35 9 -9 0
-8 -4 5 -9z"/>
<path d="M6385 7810 c3 -5 16 -10 28 -9 21 0 21 1 2 9 -28 12 -37 12 -30 0z"/>
<path d="M6538 7793 c12 -2 30 -2 40 0 9 3 -1 5 -23 4 -22 0 -30 -2 -17 -4z"/>
<path d="M6678 7773 c7 -3 16 -2 19 1 4 3 -2 6 -13 5 -11 0 -14 -3 -6 -6z"/>
<path d="M6748 7763 c7 -3 16 -2 19 1 4 3 -2 6 -13 5 -11 0 -14 -3 -6 -6z"/>
<path d="M6818 7753 c7 -3 16 -2 19 1 4 3 -2 6 -13 5 -11 0 -14 -3 -6 -6z"/>
<path d="M6880 7746 c19 -7 37 -12 39 -10 7 7 -3 12 -39 18 l-35 6 35 -14z"/>
<path d="M6968 7733 c12 -2 32 -2 45 0 12 2 2 4 -23 4 -25 0 -35 -2 -22 -4z"/>
<path d="M7083 7723 c9 -2 25 -2 35 0 9 3 1 5 -18 5 -19 0 -27 -2 -17 -5z"/>
<path d="M7268 7703 c7 -3 16 -2 19 1 4 3 -2 6 -13 5 -11 0 -14 -3 -6 -6z"/>
<path d="M3090 3750 c20 -13 50 -13 50 0 0 6 -15 10 -32 10 -25 0 -29 -3 -18
-10z"/>
<path d="M3225 3470 c3 -5 10 -10 16 -10 5 0 9 5 9 10 0 6 -7 10 -16 10 -8 0
-12 -4 -9 -10z"/>
<path d="M3360 3460 c0 -5 5 -10 10 -10 6 0 10 5 10 10 0 6 -4 10 -10 10 -5 0
-10 -4 -10 -10z"/>
<path d="M3740 3430 c0 -5 7 -10 16 -10 8 0 12 5 9 10 -3 6 -10 10 -16 10 -5
0 -9 -4 -9 -10z"/>
<path d="M3610 3170 c0 -5 4 -10 9 -10 6 0 13 5 16 10 3 6 -1 10 -9 10 -9 0
-16 -4 -16 -10z"/>
<path d="M8100 3340 c0 -5 5 -10 11 -10 5 0 7 5 4 10 -3 6 -8 10 -11 10 -2 0
-4 -4 -4 -10z"/>
<path d="M7958 3208 c9 -9 15 -9 24 0 9 9 7 12 -12 12 -19 0 -21 -3 -12 -12z"/>
<path d="M6360 2470 c0 -5 7 -10 15 -10 8 0 15 5 15 10 0 6 -7 10 -15 10 -8 0
-15 -4 -15 -10z"/>
<path d="M6495 2460 c3 -5 11 -10 16 -10 6 0 7 5 4 10 -3 6 -11 10 -16 10 -6
0 -7 -4 -4 -10z"/>
<path d="M4180 2730 c0 -5 5 -10 11 -10 5 0 7 5 4 10 -3 6 -8 10 -11 10 -2 0
-4 -4 -4 -10z"/>
<path d="M4235 2730 c-3 -5 -1 -10 4 -10 6 0 11 5 11 10 0 6 -2 10 -4 10 -3 0
-8 -4 -11 -10z"/>
</g>
</svg>
